<?xml version="1.0" encoding="UTF-8" standalone="no"?>
<!-- Created with Inkscape (http://www.inkscape.org/) -->

<svg
   width="172.43985mm"
   height="130.60744mm"
   viewBox="0 0 172.43985 130.60744"
   version="1.1"
   id="svg10078"
   inkscape:version="1.1.1 (3bf5ae0d25, 2021-09-20)"
   sodipodi:docname="book.svg"
   xmlns:inkscape="http://www.inkscape.org/namespaces/inkscape"
   xmlns:sodipodi="http://sodipodi.sourceforge.net/DTD/sodipodi-0.dtd"
   xmlns="http://www.w3.org/2000/svg"
   xmlns:svg="http://www.w3.org/2000/svg">
  <sodipodi:namedview
     id="namedview10080"
     pagecolor="#ffffff"
     bordercolor="#666666"
     borderopacity="1.0"
     inkscape:pageshadow="2"
     inkscape:pageopacity="0.0"
     inkscape:pagecheckerboard="0"
     inkscape:document-units="mm"
     showgrid="false"
     fit-margin-top="0"
     fit-margin-left="0"
     fit-margin-right="0"
     fit-margin-bottom="0"
     inkscape:zoom="0.43651796"
     inkscape:cx="436.40816"
     inkscape:cy="237.10365"
     inkscape:window-width="1298"
     inkscape:window-height="704"
     inkscape:window-x="68"
     inkscape:window-y="27"
     inkscape:window-maximized="1"
     inkscape:current-layer="layer1" />
  <defs
     id="defs10075" />
  <g
     inkscape:label="Layer 1"
     inkscape:groupmode="layer"
     id="layer1"
     transform="translate(21.349089,-85.989393)">
    <g
       id="g10472"
       transform="matrix(0.73618979,0,0,0.73618979,-5.6321077,57.140458)">
      <rect
         id="rkxc4551s3"
         x="99.712967"
         y="98.772072"
         width="40.216667"
         height="79.63958"
         stroke="#ffdc00"
         stroke-width="1.05833"
         style="fill:none" />
      <rect
         id="rkxc45t0aa"
         x="67.962967"
         y="82.897072"
         width="103.98125"
         height="111.65417"
         stroke="#3d9970"
         stroke-width="1.05833"
         style="fill:none" />
      <text
         id="tkxc46b4bn"
         x="35.6838"
         y="95.861649"
         font-size="9.525px"
         fill="#3d9970"
         style="font-family:Arial;stroke-width:0.264583">2 * cm</text>
      <text
         id="tkxc46e81w"
         x="36.212963"
         y="189.25957"
         font-size="9.525px"
         fill="#3d9970"
         style="font-family:Arial;stroke-width:0.264583">2 * cm</text>
      <text
         id="tkxc46h29q"
         x="72.196297"
         y="78.928322"
         font-size="9.525px"
         fill="#3d9970"
         style="font-family:Arial;stroke-width:0.264583">4 * cm</text>
      <text
         id="tkxc46jzsh"
         x="73.254631"
         y="208.30957"
         font-size="9.525px"
         fill="#3d9970"
         style="font-family:Arial;stroke-width:0.264583">4 * cm</text>
      <text
         id="tkxc46nbzn"
         x="146.80879"
         y="209.3679"
         font-size="9.525px"
         fill="#3d9970"
         style="font-family:Arial;stroke-width:0.264583">4 * cm</text>
      <text
         id="tkxc46rb4t"
         x="179.88171"
         y="192.43457"
         font-size="9.525px"
         fill="#3d9970"
         style="font-family:Arial;stroke-width:0.264583">2 * cm</text>
      <text
         id="tkxc46tmm9"
         x="180.94005"
         y="95.597069"
         font-size="9.525px"
         fill="#3d9970"
         style="font-family:Arial;stroke-width:0.264583">2 * cm</text>
      <text
         id="tkxc46vv66"
         x="142.57547"
         y="77.076233"
         font-size="9.525px"
         fill="#3d9970"
         style="font-family:Arial;stroke-width:0.264583">4 * cm</text>
      <path
         id="lkxc475k0p"
         stroke-width="1.05833"
         stroke="#ffdc00"
         d="m 108.7088,122.58457 v 0 c 0,0 -0.0624,0.20222 0,0.26458 0.0624,0.0624 0.20222,0.0624 0.26458,0 0.0624,-0.0624 -0.0789,-0.22513 0,-0.26458 0.15777,-0.0789 0.35278,0 0.52917,0 0.35277,0 0.70555,0 1.05833,0 0.17639,0 0.35278,0 0.52917,0 0.17639,0 0.35277,0 0.52916,0 0.0882,0 0.20222,-0.0624 0.26459,0 0.0624,0.0624 -0.0624,0.20222 0,0.26458 0.13945,0.13944 0.35277,0.1764 0.52916,0.26459 0.17639,0.0882 0.38972,0.12514 0.52917,0.26458 0.13945,0.13943 0.21041,0.33954 0.26458,0.52917 0.12355,0.4324 0.26459,0.8732 0.26459,1.32291 0,0.44971 -0.0916,0.90781 -0.26459,1.32292 -0.27347,0.65635 -0.65057,1.26958 -1.05833,1.85208 -0.21458,0.30655 -0.52917,0.52917 -0.79375,0.79375 -0.17639,0.1764 -0.35278,0.35277 -0.52917,0.52917 -0.35277,0.35277 -0.67953,0.73366 -1.05833,1.05833 -0.24143,0.20696 -0.5689,0.30433 -0.79375,0.52917 -0.0624,0.0624 0.17639,0 0.26458,0 0.70556,0 1.41401,0.0639 2.11667,0 0.27775,-0.0251 0.51865,-0.21873 0.79375,-0.26458 0.26098,-0.0435 0.53707,0.0642 0.79375,0 0.121,-0.0302 0.26458,-0.26459 0.26458,-0.26459"
         style="fill:none;stroke-linecap:round;stroke-linejoin:round" />
      <path
         id="lkxc4774j8"
         stroke-width="1.05833"
         stroke="#ffdc00"
         d="m 122.73171,122.0554 v 0 c 0,0 -0.17639,0 -0.26458,0 -0.17639,0 -0.3714,-0.0789 -0.52917,0 -0.22311,0.11155 -0.35277,0.35277 -0.52916,0.52917 -0.35278,0.35277 -0.81081,0.62516 -1.05834,1.05833 -0.13127,0.22971 0.0374,0.53184 0,0.79375 -0.0514,0.35999 -0.21315,0.69834 -0.26458,1.05834 -0.0374,0.26191 0.0374,0.53183 0,0.79375 -0.0514,0.35999 -0.21948,0.69749 -0.26458,1.05833 -0.0438,0.35004 0,0.70556 0,1.05833 0,0.35277 0,0.70557 0,1.05834 0,0.35276 0,0.70556 0,1.05833 0,0.0882 -0.0624,0.20222 0,0.26458 0.31181,0.31181 0.6995,0.53745 1.05833,0.79375 0.25876,0.18484 0.50933,0.38696 0.79375,0.52917 0.0789,0.0395 0.17902,-0.0214 0.26458,0 0.27057,0.0677 0.52559,0.34121 0.79375,0.26458 0.42401,-0.12115 0.77136,-0.45894 1.05834,-0.79375 0.25668,-0.29945 0.40444,-0.68416 0.52916,-1.05833 0.14221,-0.42664 0.15552,-0.88665 0.26459,-1.32292 0.0676,-0.27056 0.19694,-0.52319 0.26458,-0.79375 0.10907,-0.43627 0.21984,-0.87545 0.26458,-1.32291 0.0439,-0.43879 0,-0.88194 0,-1.32292 0,-0.44098 0,-0.88194 0,-1.32292 0,-0.35277 0.058,-0.71035 0,-1.05833 -0.0324,-0.19452 -0.20222,-0.34208 -0.26458,-0.52917 -0.11499,-0.34496 -0.12134,-0.72411 -0.26458,-1.05833 -0.12526,-0.29229 -0.24475,-0.65154 -0.52917,-0.79375 -0.31553,-0.15777 -0.7091,-0.0499 -1.05833,0 -0.2761,0.0395 -0.52318,0.19693 -0.79375,0.26458 -0.0856,0.0214 -0.1912,-0.0489 -0.26459,0 -0.20755,0.13838 -0.44158,0.29559 -0.52916,0.52917 -0.18837,0.50231 -0.13447,1.06706 -0.26459,1.5875 -0.0478,0.19132 -0.26458,0.52917 -0.26458,0.52917"
         style="fill:none;stroke-linecap:round;stroke-linejoin:round" />
      <path
         id="lkxc478jsp"
         stroke-width="1.05833"
         stroke="#ffdc00"
         d="m 131.72755,121.52624 v 0 c 0,0 0.0454,0.18896 0,0.26458 -0.22688,0.37814 -0.5796,0.67286 -0.79375,1.05833 -0.23066,0.41519 -0.39869,0.86625 -0.52917,1.32292 -0.0485,0.1696 0.0249,0.35454 0,0.52917 -0.0636,0.44518 -0.2088,0.87669 -0.26458,1.32291 -0.0328,0.26255 0,0.52917 0,0.79375 0,0.1764 0.0346,0.35621 0,0.52917 -0.0547,0.27347 -0.20989,0.52028 -0.26459,0.79375 -0.0346,0.17296 0,0.35277 0,0.52917 0,0.17639 -0.0485,0.35956 0,0.52916 0.13048,0.45667 0.29353,0.91057 0.52917,1.32292 0.12376,0.21659 0.3296,0.37949 0.52917,0.52917 0.15776,0.11832 0.36508,0.1552 0.52916,0.26458 0.10378,0.0692 0.14626,0.22513 0.26459,0.26458 0.16734,0.0558 0.35277,0 0.52916,0 0.17639,0 0.36183,0.0558 0.52917,0 0.11832,-0.0394 0.2088,-0.15303 0.26458,-0.26458 0.2124,-0.42479 0.29852,-0.90773 0.52917,-1.32292 0.21415,-0.38547 0.59654,-0.66392 0.79375,-1.05833 0.16262,-0.32525 0.14959,-0.71337 0.26458,-1.05833 0.15019,-0.45056 0.39869,-0.86625 0.52917,-1.32292 0.0485,-0.1696 -0.0346,-0.35621 0,-0.52917 0.0547,-0.27347 0.22514,-0.51766 0.26458,-0.79375 0.0499,-0.34922 0,-0.70556 0,-1.05833 0,-0.26458 0.0435,-0.53277 0,-0.79375 -0.0459,-0.27512 -0.161,-0.5348 -0.26458,-0.79375 -0.0732,-0.18309 -0.17639,-0.35277 -0.26458,-0.52917 -0.0882,-0.1764 -0.12514,-0.38973 -0.26459,-0.52916 -0.13945,-0.13944 -0.35277,-0.1764 -0.52916,-0.26459 -0.17639,-0.0882 -0.33465,-0.23217 -0.52917,-0.26458 -0.34798,-0.058 -0.70731,-0.0351 -1.05833,0 -0.53381,0.0534 -1.07857,0.0949 -1.5875,0.26458 -0.56127,0.18709 -1.1142,0.43879 -1.5875,0.79375 -0.25439,0.19079 -0.27478,0.60296 -0.52917,0.79375 -0.14111,0.10584 -0.52917,0 -0.52917,0"
         style="fill:none;stroke-linecap:round;stroke-linejoin:round" />
      <path
         id="lkxc47bd82"
         stroke-width="1.05833"
         stroke="#ffdc00"
         d="m 115.58796,145.60332 v 0 c 0,0 0,0 0,0 -0.26458,-0.0882 -0.51765,-0.22514 -0.79375,-0.26458 -0.34923,-0.0499 -0.70555,0 -1.05833,0 -0.26458,0 -0.52917,0 -0.79375,0 -0.17639,0 -0.35278,0 -0.52917,0 -0.0882,0 -0.17639,0 -0.26458,0 -0.0882,0 -0.20222,-0.0624 -0.26458,0 -0.0624,0.0624 0,0.17639 0,0.26458 0,0.0882 0,0.1764 0,0.26458 0,0.26459 0,0.52917 0,0.79375 0,0.0882 0,0.1764 0,0.26459 0,0.17639 0,0.35276 0,0.52916 0,0.0882 -0.0394,0.18571 0,0.26459 0.0558,0.11154 0.15763,0.20042 0.26458,0.26458 0.33821,0.20293 0.73016,0.31038 1.05833,0.52917 0.20756,0.13837 0.31527,0.40081 0.52917,0.52916 0.23915,0.14349 0.52558,0.18796 0.79375,0.26459 0.34964,0.0999 0.69835,0.21314 1.05833,0.26458 0.26193,0.0374 0.52917,0 0.79375,0 0.26459,0 0.52917,0 0.79375,0 0.35278,0 0.71913,0.0969 1.05834,0 0.30575,-0.0874 0.56889,-0.30433 0.79375,-0.52917 0.31181,-0.31181 0.51144,-0.71956 0.79375,-1.05833 0.15969,-0.19164 0.35277,-0.35277 0.52916,-0.52917 0.26459,-0.26458 0.62642,-0.45908 0.79375,-0.79375 0.11833,-0.23664 -0.0519,-0.5343 0,-0.79375 0.0387,-0.19338 0.12514,-0.38973 0.26459,-0.52916 0.0624,-0.0624 0.26458,-0.0882 0.26458,0 0,0.36364 -0.21948,0.69749 -0.26458,1.05833 -0.0438,0.35004 0.0692,0.71242 0,1.05833 -0.10939,0.54695 -0.37593,1.05116 -0.52917,1.5875 -0.0242,0.0848 0.0624,0.20222 0,0.26459 -0.13945,0.13943 -0.38972,0.12514 -0.52917,0.26458 -0.0624,0.0624 -0.0347,0.34565 0,0.26458 0.29683,-0.6926 0.45676,-1.44269 0.79375,-2.11666 0.19721,-0.39442 0.57497,-0.67546 0.79375,-1.05834 0.13838,-0.24214 0.0674,-0.59653 0.26459,-0.79375 0.19721,-0.19722 0.56169,-0.10988 0.79375,-0.26458 0.0734,-0.0489 -0.0789,-0.22514 0,-0.26458 0.15776,-0.0789 0.35277,0 0.52916,0 0.0882,0 0.17639,0 0.26459,0 0.0882,0 0.20222,-0.0624 0.26458,0 0.13945,0.13943 0.24012,0.33348 0.26458,0.52916 0.0656,0.52509 0,1.05834 0,1.5875 0,0.52917 0.0584,1.06156 0,1.5875 -0.0308,0.27718 -0.17639,0.52917 -0.26458,0.79375 -0.0882,0.26459 -0.19694,0.52319 -0.26458,0.79375 -0.0214,0.0856 0.0394,0.18571 0,0.26459 -0.0558,0.11154 -0.13986,0.26458 -0.26459,0.26458 -0.0882,0 0,-0.1764 0,-0.26458 0,-0.52917 -0.11898,-1.07188 0,-1.5875 0.15104,-0.65448 0.47212,-1.26244 0.79375,-1.85209 0.21116,-0.38714 0.48194,-0.74652 0.79375,-1.05833 0.39932,-0.39931 0.7582,-1.05833 1.32292,-1.05833 0.36364,0 0.16468,0.70868 0.26458,1.05833 0.0766,0.26815 0.22515,0.51766 0.26459,0.79375 0.0499,0.34922 0,0.70556 0,1.05833 0,0.44098 0,0.88194 0,1.32292 0,0.1764 -0.0789,0.37139 0,0.52917 0.0394,0.0789 0.17639,0 0.26458,0 0.0882,0 0.20222,0.0624 0.26458,0 0.0624,-0.0624 -0.0489,-0.19119 0,-0.26459 0.13838,-0.20756 0.40083,-0.31525 0.52917,-0.52916 0.14349,-0.23916 0.19694,-0.52319 0.26458,-0.79375 0.0214,-0.0856 0,-0.26459 0,-0.26459"
         style="fill:none;stroke-linecap:round;stroke-linejoin:round" />
      <path
         id="lkxc47e4w5"
         stroke-width="1.05833"
         stroke="#ffdc00"
         d="m 127.7588,138.98874 v 0 c 0,0 0,-0.1764 0,-0.26459 0,-0.26458 -0.0642,-0.53708 0,-0.79375 0.0303,-0.12099 0.15302,-0.20881 0.26458,-0.26458 0.0789,-0.0394 0.17639,0 0.26458,0 0.17639,0 0.36183,-0.0558 0.52917,0 0.11832,0.0395 0.20041,0.15764 0.26458,0.26458 0.20293,0.33822 0.35278,0.70557 0.52917,1.05834 0.0882,0.17639 0.23216,0.33464 0.26458,0.52916 0.058,0.34798 0,0.70557 0,1.05834 0,0.26458 0.14677,0.57359 0,0.79375 -0.0978,0.14676 -0.35804,-0.0428 -0.52916,0 -0.19132,0.0478 -0.34791,0.1869 -0.52917,0.26458 -0.43654,0.18709 -0.89811,0.31676 -1.32292,0.52917 -0.11156,0.0558 -0.35277,0.17639 -0.26458,0.26458 0.12472,0.12472 0.35278,0 0.52917,0 0.17639,0 0.3562,-0.0346 0.52916,0 0.27348,0.0547 0.52319,0.19693 0.79375,0.26458 0.0856,0.0214 0.17639,0 0.26459,0 0.0882,0 0.17639,0 0.26458,0 0.17639,0 0.52917,0 0.52917,0"
         style="fill:none;stroke-linecap:round;stroke-linejoin:round" />
      <path
         id="skxc47pnk10"
         stroke-width="1.05833"
         stroke="#3d9970"
         d="m 67.433798,79.722069 v 3.741764"
         style="fill:none;stroke-linecap:round;stroke-linejoin:round" />
      <path
         id="skxc47s2kp"
         stroke-width="1.05833"
         stroke="#3d9970"
         d="m 99.712964,79.722069 v 4.791816"
         style="fill:none;stroke-linecap:round;stroke-linejoin:round" />
      <path
         id="skxc47v4xe"
         stroke-width="1.05833"
         stroke="#3d9970"
         d="M 139.40046,80.515819 V 86.36065"
         style="fill:none;stroke-linecap:round;stroke-linejoin:round" />
      <path
         id="skxc47xfnl"
         stroke-width="1.05833"
         stroke="#3d9970"
         d="m 170.35671,98.242902 h 4.56742"
         style="fill:none;stroke-linecap:round;stroke-linejoin:round" />
      <path
         id="skxc47zg0k"
         stroke-width="1.05833"
         stroke="#3d9970"
         d="m 65.846298,97.978319 h 5.916263"
         style="fill:none;stroke-linecap:round;stroke-linejoin:round" />
      <path
         id="skxc4832h10"
         stroke-width="1.05833"
         stroke="#3d9970"
         d="m 63.994214,177.6179 h 6.89949"
         style="fill:none;stroke-linecap:round;stroke-linejoin:round" />
      <path
         id="skxc485i8h"
         stroke-width="1.05833"
         stroke="#3d9970"
         d="m 99.712964,192.43457 v 5.29828"
         style="fill:none;stroke-linecap:round;stroke-linejoin:round" />
      <path
         id="skxc487581"
         stroke-width="1.05833"
         stroke="#3d9970"
         d="m 138.8713,191.64082 v 8.20208"
         style="fill:none;stroke-linecap:round;stroke-linejoin:round" />
      <path
         id="skxc488w9r"
         stroke-width="1.05833"
         stroke="#3d9970"
         d="m 168.50463,178.14707 h 6.08542"
         style="fill:none;stroke-linecap:round;stroke-linejoin:round" />
      <text
         id="tkxc4903xe"
         x="96.802544"
         y="96.390839"
         font-size="9.525px"
         fill="#ffdc00"
         style="font-family:Arial;stroke-width:0.264583">rõhtneServ</text>
      <text
         id="tkxc5vgv6k"
         x="-15.380785"
         y="138.45956"
         font-size="9.525px"
         fill="#91e99b"
         style="font-family:Arial;stroke-width:0.264583">14 cm</text>
      <text
         id="tkxc5vki7b"
         x="100.24213"
         y="57.232487"
         font-size="9.525px"
         fill="#91e99b"
         style="font-family:Arial;stroke-width:0.264583">28 cm</text>
      <path
         id="skxc5vomuo"
         stroke-width="1.05833"
         stroke="#91e99b"
         d="m 171.15046,52.469986 v 3.977561"
         style="fill:none;stroke-linecap:round;stroke-linejoin:round" />
      <path
         id="skxc5vrkan"
         stroke-width="1.05833"
         stroke="#91e99b"
         d="M 67.433798,53.263736 V 59.08457"
         style="fill:none;stroke-linecap:round;stroke-linejoin:round" />
      <path
         id="skxc5vw7nt"
         stroke-width="1.05833"
         stroke="#91e99b"
         d="m -4.2682847,82.897069 h 2.38125"
         style="fill:none;stroke-linecap:round;stroke-linejoin:round" />
      <path
         id="skxc5vzmqm"
         stroke-width="1.05833"
         stroke="#91e99b"
         d="m -8.501618,194.28665 h 4.5674174"
         style="fill:none;stroke-linecap:round;stroke-linejoin:round" />
      <text
         id="tkxc5xastk"
         x="67.4338"
         y="144.8096"
         font-size="9.525px"
         fill="#ff851b"
         style="font-family:Arial;stroke-width:0.264583">10 * cm</text>
      <text
         id="tkxc5xki47"
         x="102.88796"
         y="190.3179"
         font-size="9.525px"
         fill="#ff851b"
         style="font-family:Arial;stroke-width:0.264583">20 * cm</text>
      <path
         id="lkxc5z4mm9"
         stroke-width="1.05833"
         stroke="#91e99b"
         d="m 146.01505,100.88874 v 0 c 0,0 0.17639,0 0.26458,0 0.0882,0 0.17639,0 0.26458,0 0.26459,0 0.52917,0 0.79375,0 0.17639,0 0.3714,-0.0789 0.52917,0 0.22312,0.11154 0.3296,0.37949 0.52917,0.52916 0.15776,0.11832 0.44097,0.0882 0.52916,0.26459 0.0558,0.11154 -0.19539,0.16081 -0.26458,0.26458 -0.46152,0.69228 -0.79605,1.47272 -1.32292,2.11667 -0.27924,0.34128 -0.74652,0.48193 -1.05833,0.79375 -0.0624,0.0624 0.0394,0.18571 0,0.26458 -0.14221,0.28443 -0.38696,0.50932 -0.52917,0.79375 -0.0394,0.0789 -0.0718,0.21333 0,0.26458 0.5786,0.41328 1.21611,0.74033 1.85209,1.05834 0.4248,0.2124 0.91565,0.28482 1.32291,0.52916 0.0756,0.0454 -0.0214,0.17902 0,0.26459 0.0676,0.27056 0.18797,0.52559 0.26459,0.79375 0.0999,0.34964 0.52171,0.80121 0.26458,1.05833 -0.37934,0.37933 -1.06294,0.15219 -1.5875,0.26458 -0.71113,0.15238 -1.40672,0.3714 -2.11667,0.52917 -0.0861,0.0191 -0.26458,0 -0.26458,0"
         style="fill:none;stroke-linecap:round;stroke-linejoin:round" />
      <path
         id="lkxc5z672h"
         stroke-width="1.05833"
         stroke="#91e99b"
         d="m 156.59838,104.85749 v 0 c 0,0 -0.17639,0 -0.26458,0 -0.35278,0 -0.70731,0.0351 -1.05834,0 -0.5338,-0.0534 -1.05517,-0.19805 -1.5875,-0.26459 -0.17502,-0.022 -0.35277,0 -0.52916,0 -0.0882,0 -0.1857,0.0395 -0.26459,0 -0.11156,-0.0558 -0.2088,-0.15303 -0.26458,-0.26458 -0.0394,-0.0789 -0.0214,-0.17902 0,-0.26458 0.0676,-0.27057 0.161,-0.53481 0.26458,-0.79375 0.0733,-0.1831 0.14626,-0.3714 0.26459,-0.52917 0.14967,-0.19955 0.33437,-0.37333 0.52916,-0.52917 0.24831,-0.19865 0.50933,-0.38695 0.79375,-0.52916 0.24946,-0.12473 0.59654,-0.0674 0.79375,-0.26459 0.12473,-0.12472 -0.12472,-0.40444 0,-0.52916 0.12473,-0.12473 0.39143,-0.1102 0.52917,0 0.34434,0.27548 0.5796,0.67286 0.79375,1.05833 0.23065,0.41518 0.4042,0.86471 0.52917,1.32292 0.14115,0.51755 0.0949,1.07857 0.26458,1.5875 0.10056,0.30167 0.41107,0.4985 0.52917,0.79375 0.0655,0.16377 0.0655,0.36539 0,0.52916 -0.1181,0.29525 -0.35278,0.52917 -0.52917,0.79375 -0.17639,0.26459 -0.35278,0.52917 -0.52917,0.79375 -0.17639,0.26459 -0.34434,0.53499 -0.52916,0.79375 -0.25631,0.35883 -0.42684,0.81373 -0.79375,1.05834 -0.22015,0.14676 -0.52917,0 -0.79375,0 -0.0882,0 -0.20222,0.0624 -0.26459,0 -0.0624,-0.0624 0,-0.1764 0,-0.26459 0,-0.1764 0.0789,-0.37139 0,-0.52916 -0.0394,-0.0789 -0.1857,0.0394 -0.26458,0 -0.11156,-0.0558 -0.17639,-0.1764 -0.26458,-0.26459 -0.0882,-0.0882 -0.26459,-0.26458 -0.26459,-0.26458"
         style="fill:none;stroke-linecap:round;stroke-linejoin:round" />
      <path
         id="lkxc5z86ae"
         stroke-width="1.05833"
         stroke="#91e99b"
         d="m 160.03796,102.74082 v 0 c 0,0 0,0 0,0 0.26459,-0.0882 0.5443,-0.13986 0.79375,-0.26458 0.11156,-0.0558 0.14626,-0.22514 0.26459,-0.26459 0.16733,-0.0558 0.3562,-0.0346 0.52916,0 0.27348,0.0547 0.5443,0.13986 0.79375,0.26459 0.28442,0.14221 0.50933,0.38695 0.79375,0.52916 0.0789,0.0395 0.22515,-0.0789 0.26459,0 0.0789,0.15777 -0.029,0.35518 0,0.52917 0.0598,0.35869 0.21948,0.69749 0.26458,1.05833 0.0438,0.35005 0,0.70557 0,1.05834 0,0.35276 0.13568,0.73268 0,1.05833 -0.32001,0.76803 -0.88685,1.40806 -1.32292,2.11667 -0.26952,0.43796 -0.50849,0.89503 -0.79375,1.32291 -0.0692,0.10377 -0.17639,0.1764 -0.26458,0.26459 -0.0882,0.0882 -0.14228,0.2401 -0.26458,0.26458 -0.34593,0.0692 -0.71036,-0.058 -1.05834,0 -0.19452,0.0324 -0.70555,0.1764 -0.52916,0.26458 0.47983,0.23993 1.0524,0.22635 1.5875,0.26459 0.70376,0.0503 1.41111,0 2.11666,0 0.35278,0 0.70556,0 1.05834,0 0.26458,0 0.52916,0 0.79375,0 0.26458,0 0.98084,-0.18709 0.79375,0 -0.25713,0.25712 -1.05834,0.26458 -1.05834,0.26458"
         style="fill:none;stroke-linecap:round;stroke-linejoin:round" />
      <path
         id="lkxc5z9k67"
         stroke-width="1.05833"
         stroke="#91e99b"
         d="m 148.66088,121.26165 v 0 c 0,0 -0.70556,0 -1.05833,0 -0.44098,0 -0.89891,-0.12115 -1.32292,0 -0.23985,0.0685 -0.35278,0.35277 -0.52917,0.52917 -0.26458,0.26458 -0.56,0.50157 -0.79375,0.79375 -0.12319,0.15399 -0.21675,0.33785 -0.26458,0.52917 -0.0428,0.17113 0,0.35276 0,0.52916 0,0.26459 -0.0374,0.53184 0,0.79375 0.0514,0.35999 0.14959,0.71337 0.26458,1.05834 0.0624,0.18708 0.14626,0.37139 0.26459,0.52916 0.14967,0.19955 0.33437,0.37333 0.52916,0.52917 0.24831,0.19865 0.48526,0.45204 0.79375,0.52917 0.42781,0.10694 0.88414,-0.0439 1.32292,0 0.44747,0.0447 0.87321,0.26458 1.32292,0.26458 0.53646,0 1.07856,-0.0949 1.5875,-0.26458 0.30167,-0.10057 0.56889,-0.30433 0.79375,-0.52917 0.22485,-0.22484 0.38696,-0.50932 0.52916,-0.79375 0.2124,-0.42479 0.34208,-0.88638 0.52917,-1.32292 0.0777,-0.18126 0.22591,-0.33578 0.26458,-0.52916 0.0519,-0.25946 -0.0519,-0.5343 0,-0.79375 0.0387,-0.19339 0.21676,-0.33785 0.26459,-0.52917 0.0428,-0.17113 0.029,-0.70316 0,-0.52917 -0.1169,0.70139 -0.16403,1.41277 -0.26459,2.11667 -0.0759,0.53107 -0.0949,1.07857 -0.26458,1.5875 -0.10056,0.30168 -0.36556,0.52107 -0.52917,0.79375 -0.10146,0.16909 -0.20222,0.34208 -0.26458,0.52917 -0.0279,0.0837 0.0624,0.20222 0,0.26458 -0.0624,0.0624 -0.17639,0 -0.26458,0 -0.0882,0 -0.22515,0.0789 -0.26459,0 -0.0789,-0.15777 -0.0485,-0.35957 0,-0.52917 0.13048,-0.45667 0.26572,-0.92773 0.52917,-1.32291 0.45103,-0.67654 1.01254,-1.27712 1.5875,-1.85209 0.31181,-0.31181 0.71399,-0.51826 1.05833,-0.79375 0.0974,-0.0779 0.14626,-0.22513 0.26459,-0.26458 0.16734,-0.0558 0.36182,-0.0558 0.52916,0 0.11833,0.0395 0.23032,0.14465 0.26459,0.26458 0.14737,0.51583 0.26458,1.05103 0.26458,1.5875 0,0.88636 -0.13923,1.7684 -0.26458,2.64584 -0.0514,0.35999 -0.0464,0.76742 -0.26459,1.05833 -0.10583,0.1411 -0.36182,0.0558 -0.52916,0 -0.11833,-0.0394 -0.26459,-0.13986 -0.26459,-0.26458 0,-0.2789 0.10248,-0.5668 0.26459,-0.79375 0.28998,-0.40598 0.65921,-0.75899 1.05833,-1.05834 0.31553,-0.23664 0.75533,-0.27667 1.05833,-0.52916 0.24429,-0.20358 0.30432,-0.56891 0.52917,-0.79375 0.13945,-0.13944 0.34208,-0.20223 0.52917,-0.26459 0.0837,-0.0279 0.20222,-0.0624 0.26458,0 0.0624,0.0624 -0.01,0.17693 0,0.26459 0.0785,0.7067 0.16403,1.41276 0.26458,2.11666 0.0759,0.53107 0.13448,1.06707 0.26459,1.5875 0.0478,0.19132 0.0674,0.52917 0.26458,0.52917 0.24945,0 0.35278,-0.35277 0.52917,-0.52917 0.44097,-0.44098 0.88194,-0.88193 1.32291,-1.32291 0.0882,-0.0882 0.26459,-0.26459 0.26459,-0.26459"
         style="fill:none;stroke-linecap:round;stroke-linejoin:round" />
      <path
         id="lkxc5zbrfo"
         stroke-width="1.05833"
         stroke="#91e99b"
         d="m 165.06505,117.55749 v 0 c 0,0 -0.26459,-0.0882 -0.26459,0 0,0.19722 0.21676,0.33784 0.26459,0.52916 0.0428,0.17113 0,0.35277 0,0.52917 0,0.44098 0,0.88193 0,1.32292 0,0.17639 0.0558,0.36181 0,0.52916 -0.0394,0.11832 -0.17639,0.1764 -0.26459,0.26459 -0.17639,0.17639 -0.3296,0.37949 -0.52916,0.52916 -0.15777,0.11832 -0.34208,0.20222 -0.52917,0.26459 -0.0837,0.0279 -0.17639,0 -0.26458,0 -0.26459,0 -0.52917,0 -0.79375,0 -0.17639,0 0.35277,0 0.52916,0 0.17639,0 0.35278,0 0.52917,0 0.17639,0 0.35278,0 0.52917,0 0.17639,0 0.36182,-0.0558 0.52916,0 0.11833,0.0394 0.15303,0.2088 0.26459,0.26458 0.24945,0.12472 0.52027,0.20989 0.79375,0.26458 0.17296,0.0346 0.52916,0 0.52916,0"
         style="fill:none;stroke-linecap:round;stroke-linejoin:round" />
      <rect
         id="rkxc63xagk"
         x="-19.084951"
         y="127.08249"
         width="33.602081"
         height="15.08125"
         stroke="#91e99b"
         stroke-width="1.05833"
         style="fill:none" />
      <rect
         id="rkxc63ymfe"
         x="97.067131"
         y="44.79707"
         width="32.543751"
         height="16.139584"
         stroke="#91e99b"
         stroke-width="1.05833"
         style="fill:none" />
      <text
         id="tkxc6tv89s"
         x="143.6338"
         y="144.54498"
         font-size="9.525px"
         fill="#ffdc00"
         style="font-family:Arial;stroke-width:0.264583">püstine</text>
      <rect
         style="fill:none;fill-opacity:0.862745;stroke:none;stroke-width:2"
         id="rect9919"
         width="234.23288"
         height="177.41002"
         x="-21.349089"
         y="39.186817"
         inkscape:export-filename="/run/user/1000/gvfs/sftp:host=192.168.1.173,user=kalmer/home/kalmer/rstudio-projects/math-simple/book-874x653px.png"
         inkscape:export-xdpi="90"
         inkscape:export-ydpi="90" />
    </g>
  </g>
</svg>
